# xmcd CD database file
#
# Track frame offsets:
#	150
#	17480
#	30930
#	57227
#	73817
#	88850
#	104650
#	121310
#	140472
#	156155
#
# Disc length: 2397 seconds
#
# Revision: 0
# Processed by: cddbd v1.5.1PL0 Copyright (c) Steve Scherf et al.
# Submitted via: CDex 1.51
#
DISCID=83095b0a
DTITLE=Jazz Butcher Conspiracy - Distressed Gentlefolk
DYEAR=1986
DGENRE=Jazz
TTITLE0=Falling in Love
TTITLE1=Big Bad Thing
TTITLE2=Still In the Kitchen
TTITLE3=Hungarian Love Song
TTITLE4=The New World
TTITLE5=Who Loves You Now?
TTITLE6=Domestic Animal
TTITLE7=Buffalo Shame
TTITLE8=Nothing Special
TTITLE9=Angels
EXTD=YEAR: 1986
EXTT0=
EXTT1=
EXTT2=
EXTT3=
EXTT4=
EXTT5=
EXTT6=
EXTT7=
EXTT8=
EXTT9=
PLAYORDER=
